{
	"asset":{
		"generator":"Khronos glTF Blender I/O v4.4.56",
		"version":"2.0"
	},
	"scene":0,
	"scenes":[
		{
			"name":"Scene",
			"nodes":[
				0,
				1,
				2
			]
		}
	],
	"nodes":[
		{
			"mesh":0,
			"name":"frame"
		},
		{
			"mesh":1,
			"name":"odd"
		},
		{
			"mesh":2,
			"name":"even"
		}
	],
	"materials":[
		{
			"doubleSided":true,
			"name":"M1",
			"pbrMetallicRoughness":{
				"baseColorFactor":[
					0.011241335421800613,
					0.011241335421800613,
					0.011241335421800613,
					1
				],
				"metallicFactor":0,
				"roughnessFactor":0.712598443031311
			}
		},
		{
			"doubleSided":true,
			"name":"M2",
			"pbrMetallicRoughness":{
				"metallicFactor":0,
				"roughnessFactor":0
			}
		}
	],
	"meshes":[
		{
			"name":"Cube",
			"primitives":[
				{
					"attributes":{
						"POSITION":0,
						"NORMAL":1,
						"TEXCOORD_0":2
					},
					"indices":3,
					"material":0
				}
			]
		},
		{
			"name":"Cube.002",
			"primitives":[
				{
					"attributes":{
						"POSITION":4,
						"NORMAL":5,
						"TEXCOORD_0":6
					},
					"indices":7,
					"material":0
				}
			]
		},
		{
			"name":"Cube.003",
			"primitives":[
				{
					"attributes":{
						"POSITION":8,
						"NORMAL":9,
						"TEXCOORD_0":10
					},
					"indices":7,
					"material":1
				}
			]
		}
	],
	"accessors":[
		{
			"bufferView":0,
			"componentType":5126,
			"count":64,
			"max":[
				8.069363594055176,
				0.6393739581108093,
				8.069363594055176
			],
			"min":[
				-8.069363594055176,
				-0.1202334389090538,
				-8.069363594055176
			],
			"type":"VEC3"
		},
		{
			"bufferView":1,
			"componentType":5126,
			"count":64,
			"type":"VEC3"
		},
		{
			"bufferView":2,
			"componentType":5126,
			"count":64,
			"type":"VEC2"
		},
		{
			"bufferView":3,
			"componentType":5123,
			"count":108,
			"type":"SCALAR"
		},
		{
			"bufferView":4,
			"componentType":5126,
			"count":3920,
			"max":[
				7.610664367675781,
				0.6335610151290894,
				7.660937786102295
			],
			"min":[
				-7.6114583015441895,
				-0.008139237761497498,
				-7.6371049880981445
			],
			"type":"VEC3"
		},
		{
			"bufferView":5,
			"componentType":5126,
			"count":3920,
			"type":"VEC3"
		},
		{
			"bufferView":6,
			"componentType":5126,
			"count":3920,
			"type":"VEC2"
		},
		{
			"bufferView":7,
			"componentType":5123,
			"count":5880,
			"type":"SCALAR"
		},
		{
			"bufferView":8,
			"componentType":5126,
			"count":3920,
			"max":[
				7.610664367675781,
				0.6335610151290894,
				7.658201217651367
			],
			"min":[
				-7.6114583015441895,
				-0.008139237761497498,
				-7.639841556549072
			],
			"type":"VEC3"
		},
		{
			"bufferView":9,
			"componentType":5126,
			"count":3920,
			"type":"VEC3"
		},
		{
			"bufferView":10,
			"componentType":5126,
			"count":3920,
			"type":"VEC2"
		}
	],
	"bufferViews":[
		{
			"buffer":0,
			"byteLength":768,
			"byteOffset":0,
			"target":34962
		},
		{
			"buffer":0,
			"byteLength":768,
			"byteOffset":768,
			"target":34962
		},
		{
			"buffer":0,
			"byteLength":512,
			"byteOffset":1536,
			"target":34962
		},
		{
			"buffer":0,
			"byteLength":216,
			"byteOffset":2048,
			"target":34963
		},
		{
			"buffer":0,
			"byteLength":47040,
			"byteOffset":2264,
			"target":34962
		},
		{
			"buffer":0,
			"byteLength":47040,
			"byteOffset":49304,
			"target":34962
		},
		{
			"buffer":0,
			"byteLength":31360,
			"byteOffset":96344,
			"target":34962
		},
		{
			"buffer":0,
			"byteLength":11760,
			"byteOffset":127704,
			"target":34963
		},
		{
			"buffer":0,
			"byteLength":47040,
			"byteOffset":139464,
			"target":34962
		},
		{
			"buffer":0,
			"byteLength":47040,
			"byteOffset":186504,
			"target":34962
		},
		{
			"buffer":0,
			"byteLength":31360,
			"byteOffset":233544,
			"target":34962
		}
	],
	"buffers":[
		{
			"byteLength":264904,
			"uri":"platform00.bin"
		}
	]
}
