<svg width="24" height="24" viewBox="0 0 24 24" fill="none" xmlns="http://www.w3.org/2000/svg">
<circle cx="4" cy="4" r="4" fill="#101010"/>
<circle cx="20" cy="4" r="4" fill="#101010"/>
<circle cx="20" cy="20" r="4" fill="#101010"/>
<circle cx="4" cy="20" r="4" fill="#101010"/>
<rect y="4" width="24" height="16" fill="#101010"/>
<rect x="4" width="16" height="24" fill="#101010"/>
<g filter="url(#filter0_d_3_2)">
<path d="M5.04747 17V6.78H6.79747V15.376H11.1375V17H5.04747ZM13.05 17V6.78H16.088C16.7787 6.78 17.376 6.91067 17.88 7.172C18.3933 7.43333 18.79 7.802 19.07 8.278C19.35 8.754 19.49 9.31867 19.49 9.972V13.794C19.49 14.438 19.35 15.0027 19.07 15.488C18.79 15.964 18.3933 16.3373 17.88 16.608C17.376 16.8693 16.7787 17 16.088 17H13.05ZM14.8 15.39H16.088C16.592 15.39 16.9933 15.25 17.292 14.97C17.5907 14.6807 17.74 14.2887 17.74 13.794V9.972C17.74 9.48667 17.5907 9.104 17.292 8.824C16.9933 8.53467 16.592 8.39 16.088 8.39H14.8V15.39Z" fill="#F0F0F0"/>
</g>
<defs>
<filter id="filter0_d_3_2" x="1.04747" y="6.78" width="22.4425" height="18.22" filterUnits="userSpaceOnUse" color-interpolation-filters="sRGB">
<feFlood flood-opacity="0" result="BackgroundImageFix"/>
<feColorMatrix in="SourceAlpha" type="matrix" values="0 0 0 0 0 0 0 0 0 0 0 0 0 0 0 0 0 0 127 0" result="hardAlpha"/>
<feOffset dy="4"/>
<feGaussianBlur stdDeviation="2"/>
<feComposite in2="hardAlpha" operator="out"/>
<feColorMatrix type="matrix" values="0 0 0 0 0 0 0 0 0 0 0 0 0 0 0 0 0 0 0.25 0"/>
<feBlend mode="normal" in2="BackgroundImageFix" result="effect1_dropShadow_3_2"/>
<feBlend mode="normal" in="SourceGraphic" in2="effect1_dropShadow_3_2" result="shape"/>
</filter>
</defs>
</svg>
