<svg width="24" height="24" viewBox="0 0 24 24" fill="none" xmlns="http://www.w3.org/2000/svg">
<g clip-path="url(#clip0_33_3)">
<g filter="url(#filter0_d_33_3)">
<path d="M14.1863 18.6498C15.689 18.1558 16.9801 17.1673 17.8491 15.8455C18.7181 14.5237 19.1138 12.9466 18.9717 11.3711C18.8296 9.79565 18.158 8.31477 17.0665 7.16984C15.975 6.02491 14.5279 5.28344 12.961 5.06628C11.3941 4.84911 9.79985 5.16907 8.43809 5.97399C7.07633 6.77891 6.02735 8.02133 5.46212 9.49876C4.8969 10.9762 4.84874 12.6015 5.32552 14.1098C5.80229 15.6181 6.77588 16.9205 8.0876 17.8046" stroke="white" stroke-width="2"/>
</g>
<path d="M14.2302 14.91L12.8849 18.6031L16 21" stroke="white" stroke-width="2"/>
</g>
<defs>
<filter id="filter0_d_33_3" x="0" y="3.99999" width="24" height="23.5998" filterUnits="userSpaceOnUse" color-interpolation-filters="sRGB">
<feFlood flood-opacity="0" result="BackgroundImageFix"/>
<feColorMatrix in="SourceAlpha" type="matrix" values="0 0 0 0 0 0 0 0 0 0 0 0 0 0 0 0 0 0 127 0" result="hardAlpha"/>
<feOffset dy="4"/>
<feGaussianBlur stdDeviation="2"/>
<feComposite in2="hardAlpha" operator="out"/>
<feColorMatrix type="matrix" values="0 0 0 0 0 0 0 0 0 0 0 0 0 0 0 0 0 0 0.25 0"/>
<feBlend mode="normal" in2="BackgroundImageFix" result="effect1_dropShadow_33_3"/>
<feBlend mode="normal" in="SourceGraphic" in2="effect1_dropShadow_33_3" result="shape"/>
</filter>
<clipPath id="clip0_33_3">
<rect width="24" height="24" fill="white"/>
</clipPath>
</defs>
</svg>
