<svg width="24" height="24" viewBox="0 0 24 24" fill="none" xmlns="http://www.w3.org/2000/svg">
<g clip-path="url(#clip0_37_2)">
<path d="M6.8 18.16C5.65867 18.16 4.76267 17.8507 4.112 17.232C3.472 16.6027 3.152 15.7493 3.152 14.672V6.32H5.168V14.656C5.168 15.2107 5.30667 15.6427 5.584 15.952C5.86133 16.2613 6.26667 16.416 6.8 16.416C7.32267 16.416 7.72267 16.2613 8 15.952C8.288 15.6427 8.432 15.2107 8.432 14.656V6.32H10.448V14.672C10.448 15.7493 10.128 16.6027 9.488 17.232C8.848 17.8507 7.952 18.16 6.8 18.16ZM13.0338 18V16.24H15.3858V8.08H13.0338V6.32H19.7538V8.08H17.4018V16.24H19.7538V18H13.0338Z" fill="white"/>
</g>
<defs>
<clipPath id="clip0_37_2">
<rect width="24" height="24" fill="white"/>
</clipPath>
</defs>
</svg>
